# xmcd
#
# Track frame offsets:
#	150
#	25254
#	48182
#	66844
#	88822
#	104211
#	124589
#	147254
#	162675
#	178731
#	197959
#	219572
#	251619
#
# Disc length: 3718 seconds
#
# Revision: 2
# Processed by: cddbd v1.5.1PL0 Copyright (c) Steve Scherf et al.
# Submitted via: EasyCDDAExtractor 8.2.1.1
#
DISCID=c90e840d
DTITLE=паяиос циаммгс - дем цуяифы писы
DYEAR=2005
DGENRE=казйа
TTITLE0=дем цуяифы писы
TTITLE1=сто йаты йаты тгс цяажгс
TTITLE2=то пакио йяебати
TTITLE3=паки 
TTITLE4=г ацапг дем вяеымеи
TTITLE5=ецйкгла ейамес
TTITLE6=амеба писта
TTITLE7=йапмиса поку
TTITLE8=сйотыла хекоуле йи ои дуо
TTITLE9=йи еива тоса ма соу пы
TTITLE10=амоинг
TTITLE11=лг ле суцйяимеис
TTITLE12=Data
EXTD=YEAR: 2005
EXTT0=
EXTT1=
EXTT2=
EXTT3=
EXTT4=
EXTT5=
EXTT6=
EXTT7=
EXTT8=
EXTT9=
EXTT10=
EXTT11=
EXTT12=
PLAYORDER=
